<svg width="3591" height="1100" viewBox="0 0 3591 1100" fill="none" xmlns="http://www.w3.org/2000/svg">
<path d="M1698.96 233.165C1691.47 188.201 1670.72 155.342 1615.95 155.342C1547.35 155.342 1524.29 208.377 1524.29 285.624C1524.29 363.447 1547.35 416.482 1615.95 416.482C1671.29 416.482 1692.05 383.624 1698.96 337.506H1802.73C1793.51 434.353 1733.55 501.224 1620.56 501.224C1490.28 501.224 1420.53 410.141 1420.53 285.624C1420.53 161.683 1490.28 70.6008 1620.56 70.6008C1732.98 70.6008 1792.93 137.471 1802.73 233.165H1698.96ZM2007.53 278.706C2007.53 261.412 1995.42 251.036 1970.06 251.036C1936.62 251.036 1920.48 263.718 1917.6 291.965H1831.13C1834.01 235.471 1874.36 187.624 1970.63 187.624C2053.65 187.624 2099.76 219.906 2099.76 312.718V448.188C2099.76 463.753 2105.53 470.094 2117.06 470.094V492C2098.61 498.918 2081.89 501.224 2063.45 501.224C2021.94 501.224 2010.41 481.624 2010.41 460.871H2009.26C1990.23 482.776 1955.65 501.224 1916.45 501.224C1854.19 501.224 1819.6 466.059 1819.6 416.482C1819.6 357.683 1862.83 330.589 1932.01 316.753C1970.06 309.259 2007.53 303.494 2007.53 278.706ZM1948.73 437.812C1988.5 437.812 2007.53 412.447 2007.53 384.2V348.459C1996 353.071 1981.59 357.106 1960.26 361.718C1923.94 369.788 1911.83 384.777 1911.83 403.224C1911.83 427.435 1926.25 437.812 1948.73 437.812ZM2515.24 187.624C2574.62 187.624 2609.79 225.095 2609.79 292.542V492H2516.4V321.941C2516.4 277.553 2507.17 262.565 2474.32 262.565C2444.92 262.565 2426.47 280.436 2426.47 321.365V492H2334.23V321.941C2334.23 277.553 2325.01 262.565 2292.15 262.565C2263.33 262.565 2244.3 280.436 2244.3 321.365V492H2152.07V196.848H2244.3V239.506H2245.46C2261.02 212.412 2293.3 187.624 2337.69 187.624C2376.32 187.624 2403.41 208.953 2414.94 239.506H2416.09C2441.46 210.106 2467.4 187.624 2515.24 187.624ZM2831.24 187.624C2909.64 187.624 2959.8 247.577 2959.8 344.424C2959.8 441.271 2909.64 501.224 2831.24 501.224C2788.59 501.224 2757.46 478.165 2745.93 462.6H2744.77V594.035H2652.54V196.848H2744.77V226.248H2745.93C2757.46 210.683 2788.59 187.624 2831.24 187.624ZM2807.03 432.047C2844.5 432.047 2867.56 402.071 2867.56 344.424C2867.56 286.777 2844.5 256.8 2807.03 256.8C2769.56 256.8 2746.5 286.777 2746.5 344.424C2746.5 402.071 2769.56 432.047 2807.03 432.047ZM3185.08 196.848H3277.32V492H3185.08V449.341H3183.93C3168.36 476.435 3139.54 501.224 3087.08 501.224C3030.01 501.224 2991.39 463.753 2991.39 396.306V196.848H3083.62V366.906C3083.62 411.294 3099.19 426.282 3129.74 426.282C3164.9 426.282 3185.08 408.412 3185.08 367.483V196.848ZM3466.58 305.8C3524.8 318.483 3582.45 338.083 3582.45 404.953C3582.45 467.212 3535.18 501.224 3453.32 501.224C3347.82 501.224 3307.47 453.953 3304.59 394H3391.06C3393.94 423.4 3413.54 437.812 3449.86 437.812C3475.8 437.812 3490.21 429.165 3490.21 412.447C3490.21 387.083 3462.54 383.624 3415.85 373.247C3365.7 362.294 3310.35 343.847 3310.35 282.165C3310.35 228.553 3356.47 187.624 3439.48 187.624C3534.02 187.624 3570.92 235.471 3573.8 287.353H3487.33C3484.45 263.718 3471.77 251.036 3441.79 251.036C3415.85 251.036 3402.59 260.259 3402.59 274.671C3402.59 295.424 3421.04 296 3466.58 305.8Z" fill="#053495"/>
<path d="M1407.85 621.824H1517.95L1595.78 910.636H1596.93L1675.33 621.824H1784.86L1651.12 1034H1541.59L1407.85 621.824ZM1906.02 974.047C1937.72 974.047 1952.71 959.059 1958.47 944.647H2050.13C2033.99 1004.02 1987.87 1043.22 1907.75 1043.22C1809.75 1043.22 1750.37 978.659 1750.37 886.424C1750.37 796.495 1808.59 729.624 1902.56 729.624C2003.44 729.624 2054.74 803.412 2054.74 910.636H1842.6C1842.6 952.141 1873.16 974.047 1906.02 974.047ZM1902.56 793.036C1867.39 793.036 1842.6 813.789 1842.6 854.718H1962.51C1962.51 813.789 1937.72 793.036 1902.56 793.036ZM2251.65 733.659C2259.72 733.659 2266.64 733.659 2277.01 735.965V816.671H2275.86C2228.59 808.024 2178.44 833.965 2178.44 896.8V1034H2086.2V738.848H2178.44V787.271H2179.59C2194 754.412 2219.37 733.659 2251.65 733.659ZM2451 847.8C2509.22 860.483 2566.87 880.083 2566.87 946.953C2566.87 1009.21 2519.6 1043.22 2437.74 1043.22C2332.25 1043.22 2291.89 995.953 2289.01 936H2375.48C2378.36 965.4 2397.96 979.812 2434.28 979.812C2460.22 979.812 2474.64 971.165 2474.64 954.447C2474.64 929.083 2446.96 925.624 2400.27 915.247C2350.12 904.294 2294.78 885.847 2294.78 824.165C2294.78 770.553 2340.89 729.624 2423.91 729.624C2518.45 729.624 2555.34 777.471 2558.22 829.353H2471.75C2468.87 805.718 2456.19 793.036 2426.21 793.036C2400.27 793.036 2387.01 802.259 2387.01 816.671C2387.01 837.424 2405.46 838 2451 847.8ZM2742.57 974.047C2774.28 974.047 2789.27 959.059 2795.03 944.647H2886.69C2870.55 1004.02 2824.43 1043.22 2744.3 1043.22C2646.3 1043.22 2586.93 978.659 2586.93 886.424C2586.93 796.495 2645.15 729.624 2739.11 729.624C2840 729.624 2891.3 803.412 2891.3 910.636H2679.16C2679.16 952.141 2709.71 974.047 2742.57 974.047ZM2739.11 793.036C2703.95 793.036 2679.16 813.789 2679.16 854.718H2799.07C2799.07 813.789 2774.28 793.036 2739.11 793.036Z" fill="#0AC5FF"/>
<path d="M907.644 380.138C871.603 331.824 821.113 296.24 763.493 278.545C705.872 260.85 644.114 261.961 587.168 281.719C530.221 301.476 481.045 338.853 446.766 388.433C412.487 438.013 394.885 497.22 396.512 557.475C398.138 617.729 418.908 675.901 455.813 723.559C492.717 771.217 543.838 805.887 601.767 822.543C659.697 839.2 721.425 836.978 778.007 816.199C834.589 795.421 883.085 757.166 916.467 706.978L803.636 631.929C786.195 658.152 760.857 678.139 731.294 688.995C701.731 699.851 669.48 701.012 639.213 692.31C608.947 683.607 582.237 665.493 562.956 640.593C543.674 615.693 532.822 585.299 531.972 553.818C531.123 522.337 540.319 491.402 558.229 465.498C576.139 439.594 601.832 420.065 631.585 409.742C661.339 399.42 693.606 398.839 723.711 408.084C753.816 417.33 780.195 435.921 799.026 461.164L907.644 380.138Z" fill="#0AC5FF"/>
<path d="M221.769 853.385C286.329 950.876 380.288 1025.25 489.999 1065.69C599.71 1106.14 719.458 1110.55 831.85 1078.3C944.242 1046.04 1043.42 978.798 1114.99 886.328C1186.56 793.858 1226.78 680.98 1229.81 564.091C1232.85 447.201 1198.54 332.388 1131.87 236.327C1065.2 140.267 969.645 67.9631 859.078 29.9177C748.512 -8.12773 628.696 -9.93307 517.033 24.7639C405.371 59.4609 307.678 128.853 238.145 222.861L364.367 316.222C414.045 249.058 483.842 199.48 563.62 174.691C643.398 149.901 729.001 151.191 807.995 178.373C886.99 205.555 955.262 257.212 1002.89 325.843C1050.53 394.474 1075.04 476.502 1072.87 560.015C1070.7 643.527 1041.96 724.173 990.833 790.238C939.702 856.304 868.841 904.348 788.542 927.393C708.243 950.438 622.689 947.282 544.305 918.385C465.922 889.488 398.793 836.354 352.668 766.702L221.769 853.385Z" fill="#053495"/>
<path d="M292.133 388.164C271.644 431.361 259.479 478.032 256.273 525.734C253.062 573.373 258.943 621.187 273.603 666.628L254.004 672.962C238.539 625.034 232.334 574.601 235.72 524.354C239.101 474.067 251.928 424.868 273.53 379.332L292.133 388.164Z" fill="#0AC5FF"/>
<path d="M268.145 376.784C246.22 422.996 233.2 472.926 229.768 523.961C226.33 574.96 232.629 626.148 248.327 674.793L223.222 682.905C189.581 578.265 197.131 464.732 244.332 365.469L268.145 376.784Z" fill="#0AC5FF"/>
<path d="M238.965 362.926C191.119 463.56 183.476 578.658 217.595 684.735L194.269 692.273C158.229 580.248 166.295 458.691 216.822 352.41L238.965 362.926Z" fill="#0AC5FF"/>
<path d="M211.453 349.849C160.278 457.498 152.11 580.617 188.614 694.083L167.199 701.004C128.927 582.077 137.484 453.028 191.121 340.195L211.453 349.849Z" fill="#0AC5FF"/>
<path d="M255.456 776.075C249.016 771.196 242.219 766.33 235.861 761.04C229.6 755.698 222.98 750.348 216.829 744.588L263.346 722.872C263.267 730.578 263.769 738.194 264.071 746.083C264.462 753.927 265.44 761.647 266.214 769.654C266.75 774.688 259.588 779.144 255.456 776.075Z" fill="#3D3D3B"/>
<path d="M273.599 666.626L270.158 680.264L267.458 694.139C265.514 703.616 264.557 713.027 263.356 722.873L216.836 744.584C208.455 738.039 199.587 731.366 191.541 724L179.113 712.849L167.196 701.008L273.599 666.626Z" fill="#E4C7A7"/>
<path d="M195.245 331.759L295.318 381.654L292.131 388.163L191.122 340.196L195.245 331.759Z" fill="#3D3D3B"/>
<path d="M197.604 326.961L297.124 377.944L295.883 380.497L195.981 330.262L197.604 326.961Z" fill="#3D3D3B"/>
<path d="M200.062 322.213L299.021 374.274C298.571 375.107 298.076 375.917 297.693 376.788L198.338 325.459C198.858 324.348 199.484 323.291 200.062 322.213Z" fill="#3D3D3B"/>
<path d="M200.062 322.214L299.021 374.276C302.24 368.631 305.146 362.802 308.563 357.274C311.972 351.829 311.663 344.802 308.888 337.791C306.166 330.85 300.693 323.732 292.897 318.42L256.931 293.921C249.144 288.601 240.277 286.436 232.079 287.493C228.064 288.001 224.213 289.404 220.812 291.598C217.411 293.791 214.545 296.72 212.426 300.169C208.024 307.354 204.179 314.864 200.062 322.214Z" fill="black"/>
</svg>
