<svg width="1195" height="1181" viewBox="0 0 1195 1181" fill="none" xmlns="http://www.w3.org/2000/svg">
<path d="M1.7868 622.223C4.39025 620.922 36.2825 622.223 72.7308 625.478C246.511 639.146 408.576 691.866 538.748 776.478L593.421 811.624L610.994 798.607C636.378 780.383 733.356 722.456 738.563 722.456C741.166 722.456 745.072 738.077 747.024 756.952C750.929 785.59 765.248 847.422 780.869 901.443C784.123 912.508 776.313 920.969 733.356 948.305C667.619 991.262 593.421 1060.9 545.908 1124.04C525.08 1152.03 506.205 1176.76 504.253 1180.01C497.093 1188.47 340.886 1140.31 316.153 1121.43C311.597 1118.18 372.127 1030.96 409.227 986.706C450.231 938.543 452.834 943.749 370.826 902.745C273.196 853.93 154.739 820.736 80.5411 820.086C44.0928 820.086 43.442 820.086 33.6791 796.004C16.7567 752.396 -6.67441 627.43 1.7868 622.223Z" fill="#E41E2F"/>
<path d="M163.202 181.591C219.176 123.664 269.293 86.5647 277.103 98.2802C291.422 119.108 314.853 169.224 335.03 221.293C347.396 251.884 357.81 277.918 358.461 279.22C361.715 283.125 421.595 246.677 471.711 209.578C533.543 163.366 596.677 99.5819 637.03 44.2586C653.952 19.5259 671.526 0 676.082 0C711.879 0 855.72 48.8147 855.72 61.1811C855.72 74.1983 782.823 175.082 738.565 223.897C650.698 320.875 525.733 417.203 437.866 455.604L400.767 471.875L404.672 561.694C407.276 617.017 405.974 650.862 402.069 650.862C398.814 650.862 372.78 642.401 344.142 631.987C316.155 621.574 274.5 609.207 251.719 605.302L211.366 596.841V553.884C211.366 465.367 178.823 331.289 139.12 252.535C122.849 221.293 121.547 225.849 163.202 181.591Z" fill="#E41E2F"/>
<path d="M676.723 351.466C699.503 333.242 732.046 303.302 747.667 285.078L776.305 252.535L830.327 278.57C918.844 319.574 990.439 339.1 1092.62 348.212C1142.74 352.768 1143.39 353.419 1153.15 376.199C1162.92 398.979 1183.09 478.384 1190.9 523.294L1194.81 548.678L1121.26 544.121C1080.91 542.169 1028.84 535.66 1005.41 531.104C981.978 525.897 961.801 523.294 960.499 524.596C959.197 525.246 958.547 562.996 958.547 606.604C959.197 727.014 985.232 839.613 1034.7 937.242C1043.81 954.816 1050.97 973.04 1050.97 976.945C1050.97 989.311 935.115 1093.45 921.447 1093.45C900.62 1093.45 823.818 892.333 799.085 775.178C782.163 692.518 774.353 521.341 786.719 482.94C790.624 472.527 788.671 467.32 779.559 464.716C753.525 455.604 647.434 401.583 640.926 393.772C635.719 387.264 644.18 377.501 676.723 351.466Z" fill="#E41E2F"/>
</svg>
